<?xml version="1.0" encoding="utf-8" standalone="no"?>
<!DOCTYPE svg PUBLIC "-//W3C//DTD SVG 1.1//EN"
  "http://www.w3.org/Graphics/SVG/1.1/DTD/svg11.dtd">
<svg xmlns:xlink="http://www.w3.org/1999/xlink" width="863.625625pt" height="575.646957pt" viewBox="0 0 863.625625 575.646957" xmlns="http://www.w3.org/2000/svg" version="1.1">
 <metadata>
  <rdf:RDF xmlns:dc="http://purl.org/dc/elements/1.1/" xmlns:cc="http://creativecommons.org/ns#" xmlns:rdf="http://www.w3.org/1999/02/22-rdf-syntax-ns#">
   <cc:Work>
    <dc:type rdf:resource="http://purl.org/dc/dcmitype/StillImage"/>
    <dc:date>2023-05-27T14:00:52.523009</dc:date>
    <dc:format>image/svg+xml</dc:format>
    <dc:creator>
     <cc:Agent>
      <dc:title>Matplotlib v3.7.1, https://matplotlib.org/</dc:title>
     </cc:Agent>
    </dc:creator>
   </cc:Work>
  </rdf:RDF>
 </metadata>
 <defs>
  <style type="text/css">*{stroke-linejoin: round; stroke-linecap: butt}</style>
 </defs>
 <g id="figure_1">
  <g id="axes_1">
   <g id="patch_1">
    <path d="M 63.79 489.286957 
L 844.99 489.286957 
L 844.99 7.2 
L 63.79 7.2 
z
" style="fill: #ffffff"/>
   </g>
   <g id="matplotlib.axis_1">
    <g id="xtick_1">
     <g id="line2d_1">
      <path d="M 63.79 489.286957 
L 63.79 7.2 
" clip-path="url(#p3db791a411)" style="fill: none; stroke: #dedede; stroke-linecap: square"/>
     </g>
     <g id="text_1">
      <!-- 0% -->
      <g transform="translate(57.444375 502.365707) scale(0.08 -0.08)">
       <defs>
        <path id="DejaVuSans-30" d="M 2034 4250 
Q 1547 4250 1301 3770 
Q 1056 3291 1056 2328 
Q 1056 1369 1301 889 
Q 1547 409 2034 409 
Q 2525 409 2770 889 
Q 3016 1369 3016 2328 
Q 3016 3291 2770 3770 
Q 2525 4250 2034 4250 
z
M 2034 4750 
Q 2819 4750 3233 4129 
Q 3647 3509 3647 2328 
Q 3647 1150 3233 529 
Q 2819 -91 2034 -91 
Q 1250 -91 836 529 
Q 422 1150 422 2328 
Q 422 3509 836 4129 
Q 1250 4750 2034 4750 
z
" transform="scale(0.015625)"/>
        <path id="DejaVuSans-25" d="M 4653 2053 
Q 4381 2053 4226 1822 
Q 4072 1591 4072 1178 
Q 4072 772 4226 539 
Q 4381 306 4653 306 
Q 4919 306 5073 539 
Q 5228 772 5228 1178 
Q 5228 1588 5073 1820 
Q 4919 2053 4653 2053 
z
M 4653 2450 
Q 5147 2450 5437 2106 
Q 5728 1763 5728 1178 
Q 5728 594 5436 251 
Q 5144 -91 4653 -91 
Q 4153 -91 3862 251 
Q 3572 594 3572 1178 
Q 3572 1766 3864 2108 
Q 4156 2450 4653 2450 
z
M 1428 4353 
Q 1159 4353 1004 4120 
Q 850 3888 850 3481 
Q 850 3069 1003 2837 
Q 1156 2606 1428 2606 
Q 1700 2606 1854 2837 
Q 2009 3069 2009 3481 
Q 2009 3884 1853 4118 
Q 1697 4353 1428 4353 
z
M 4250 4750 
L 4750 4750 
L 1831 -91 
L 1331 -91 
L 4250 4750 
z
M 1428 4750 
Q 1922 4750 2215 4408 
Q 2509 4066 2509 3481 
Q 2509 2891 2217 2550 
Q 1925 2209 1428 2209 
Q 931 2209 642 2551 
Q 353 2894 353 3481 
Q 353 4063 643 4406 
Q 934 4750 1428 4750 
z
" transform="scale(0.015625)"/>
       </defs>
       <use xlink:href="#DejaVuSans-30"/>
       <use xlink:href="#DejaVuSans-25" x="63.623047"/>
      </g>
     </g>
    </g>
    <g id="xtick_2">
     <g id="line2d_2">
      <path d="M 220.03 489.286957 
L 220.03 7.2 
" clip-path="url(#p3db791a411)" style="fill: none; stroke: #dedede; stroke-linecap: square"/>
     </g>
     <g id="text_2">
      <!-- 20% -->
      <g transform="translate(211.139375 502.365707) scale(0.08 -0.08)">
       <defs>
        <path id="DejaVuSans-32" d="M 1228 531 
L 3431 531 
L 3431 0 
L 469 0 
L 469 531 
Q 828 903 1448 1529 
Q 2069 2156 2228 2338 
Q 2531 2678 2651 2914 
Q 2772 3150 2772 3378 
Q 2772 3750 2511 3984 
Q 2250 4219 1831 4219 
Q 1534 4219 1204 4116 
Q 875 4013 500 3803 
L 500 4441 
Q 881 4594 1212 4672 
Q 1544 4750 1819 4750 
Q 2544 4750 2975 4387 
Q 3406 4025 3406 3419 
Q 3406 3131 3298 2873 
Q 3191 2616 2906 2266 
Q 2828 2175 2409 1742 
Q 1991 1309 1228 531 
z
" transform="scale(0.015625)"/>
       </defs>
       <use xlink:href="#DejaVuSans-32"/>
       <use xlink:href="#DejaVuSans-30" x="63.623047"/>
       <use xlink:href="#DejaVuSans-25" x="127.246094"/>
      </g>
     </g>
    </g>
    <g id="xtick_3">
     <g id="line2d_3">
      <path d="M 376.27 489.286957 
L 376.27 7.2 
" clip-path="url(#p3db791a411)" style="fill: none; stroke: #dedede; stroke-linecap: square"/>
     </g>
     <g id="text_3">
      <!-- 40% -->
      <g transform="translate(367.379375 502.365707) scale(0.08 -0.08)">
       <defs>
        <path id="DejaVuSans-34" d="M 2419 4116 
L 825 1625 
L 2419 1625 
L 2419 4116 
z
M 2253 4666 
L 3047 4666 
L 3047 1625 
L 3713 1625 
L 3713 1100 
L 3047 1100 
L 3047 0 
L 2419 0 
L 2419 1100 
L 313 1100 
L 313 1709 
L 2253 4666 
z
" transform="scale(0.015625)"/>
       </defs>
       <use xlink:href="#DejaVuSans-34"/>
       <use xlink:href="#DejaVuSans-30" x="63.623047"/>
       <use xlink:href="#DejaVuSans-25" x="127.246094"/>
      </g>
     </g>
    </g>
    <g id="xtick_4">
     <g id="line2d_4">
      <path d="M 532.51 489.286957 
L 532.51 7.2 
" clip-path="url(#p3db791a411)" style="fill: none; stroke: #dedede; stroke-linecap: square"/>
     </g>
     <g id="text_4">
      <!-- 60% -->
      <g transform="translate(523.619375 502.365707) scale(0.08 -0.08)">
       <defs>
        <path id="DejaVuSans-36" d="M 2113 2584 
Q 1688 2584 1439 2293 
Q 1191 2003 1191 1497 
Q 1191 994 1439 701 
Q 1688 409 2113 409 
Q 2538 409 2786 701 
Q 3034 994 3034 1497 
Q 3034 2003 2786 2293 
Q 2538 2584 2113 2584 
z
M 3366 4563 
L 3366 3988 
Q 3128 4100 2886 4159 
Q 2644 4219 2406 4219 
Q 1781 4219 1451 3797 
Q 1122 3375 1075 2522 
Q 1259 2794 1537 2939 
Q 1816 3084 2150 3084 
Q 2853 3084 3261 2657 
Q 3669 2231 3669 1497 
Q 3669 778 3244 343 
Q 2819 -91 2113 -91 
Q 1303 -91 875 529 
Q 447 1150 447 2328 
Q 447 3434 972 4092 
Q 1497 4750 2381 4750 
Q 2619 4750 2861 4703 
Q 3103 4656 3366 4563 
z
" transform="scale(0.015625)"/>
       </defs>
       <use xlink:href="#DejaVuSans-36"/>
       <use xlink:href="#DejaVuSans-30" x="63.623047"/>
       <use xlink:href="#DejaVuSans-25" x="127.246094"/>
      </g>
     </g>
    </g>
    <g id="xtick_5">
     <g id="line2d_5">
      <path d="M 688.75 489.286957 
L 688.75 7.2 
" clip-path="url(#p3db791a411)" style="fill: none; stroke: #dedede; stroke-linecap: square"/>
     </g>
     <g id="text_5">
      <!-- 80% -->
      <g transform="translate(679.859375 502.365707) scale(0.08 -0.08)">
       <defs>
        <path id="DejaVuSans-38" d="M 2034 2216 
Q 1584 2216 1326 1975 
Q 1069 1734 1069 1313 
Q 1069 891 1326 650 
Q 1584 409 2034 409 
Q 2484 409 2743 651 
Q 3003 894 3003 1313 
Q 3003 1734 2745 1975 
Q 2488 2216 2034 2216 
z
M 1403 2484 
Q 997 2584 770 2862 
Q 544 3141 544 3541 
Q 544 4100 942 4425 
Q 1341 4750 2034 4750 
Q 2731 4750 3128 4425 
Q 3525 4100 3525 3541 
Q 3525 3141 3298 2862 
Q 3072 2584 2669 2484 
Q 3125 2378 3379 2068 
Q 3634 1759 3634 1313 
Q 3634 634 3220 271 
Q 2806 -91 2034 -91 
Q 1263 -91 848 271 
Q 434 634 434 1313 
Q 434 1759 690 2068 
Q 947 2378 1403 2484 
z
M 1172 3481 
Q 1172 3119 1398 2916 
Q 1625 2713 2034 2713 
Q 2441 2713 2670 2916 
Q 2900 3119 2900 3481 
Q 2900 3844 2670 4047 
Q 2441 4250 2034 4250 
Q 1625 4250 1398 4047 
Q 1172 3844 1172 3481 
z
" transform="scale(0.015625)"/>
       </defs>
       <use xlink:href="#DejaVuSans-38"/>
       <use xlink:href="#DejaVuSans-30" x="63.623047"/>
       <use xlink:href="#DejaVuSans-25" x="127.246094"/>
      </g>
     </g>
    </g>
    <g id="xtick_6">
     <g id="line2d_6">
      <path d="M 844.99 489.286957 
L 844.99 7.2 
" clip-path="url(#p3db791a411)" style="fill: none; stroke: #dedede; stroke-linecap: square"/>
     </g>
     <g id="text_6">
      <!-- 100% -->
      <g transform="translate(833.554375 502.365707) scale(0.08 -0.08)">
       <defs>
        <path id="DejaVuSans-31" d="M 794 531 
L 1825 531 
L 1825 4091 
L 703 3866 
L 703 4441 
L 1819 4666 
L 2450 4666 
L 2450 531 
L 3481 531 
L 3481 0 
L 794 0 
L 794 531 
z
" transform="scale(0.015625)"/>
       </defs>
       <use xlink:href="#DejaVuSans-31"/>
       <use xlink:href="#DejaVuSans-30" x="63.623047"/>
       <use xlink:href="#DejaVuSans-30" x="127.246094"/>
       <use xlink:href="#DejaVuSans-25" x="190.869141"/>
      </g>
     </g>
    </g>
    <g id="text_7">
     <!-- Count -->
     <g transform="translate(439.541563 515.627894) scale(0.1 -0.1)">
      <defs>
       <path id="DejaVuSans-43" d="M 4122 4306 
L 4122 3641 
Q 3803 3938 3442 4084 
Q 3081 4231 2675 4231 
Q 1875 4231 1450 3742 
Q 1025 3253 1025 2328 
Q 1025 1406 1450 917 
Q 1875 428 2675 428 
Q 3081 428 3442 575 
Q 3803 722 4122 1019 
L 4122 359 
Q 3791 134 3420 21 
Q 3050 -91 2638 -91 
Q 1578 -91 968 557 
Q 359 1206 359 2328 
Q 359 3453 968 4101 
Q 1578 4750 2638 4750 
Q 3056 4750 3426 4639 
Q 3797 4528 4122 4306 
z
" transform="scale(0.015625)"/>
       <path id="DejaVuSans-6f" d="M 1959 3097 
Q 1497 3097 1228 2736 
Q 959 2375 959 1747 
Q 959 1119 1226 758 
Q 1494 397 1959 397 
Q 2419 397 2687 759 
Q 2956 1122 2956 1747 
Q 2956 2369 2687 2733 
Q 2419 3097 1959 3097 
z
M 1959 3584 
Q 2709 3584 3137 3096 
Q 3566 2609 3566 1747 
Q 3566 888 3137 398 
Q 2709 -91 1959 -91 
Q 1206 -91 779 398 
Q 353 888 353 1747 
Q 353 2609 779 3096 
Q 1206 3584 1959 3584 
z
" transform="scale(0.015625)"/>
       <path id="DejaVuSans-75" d="M 544 1381 
L 544 3500 
L 1119 3500 
L 1119 1403 
Q 1119 906 1312 657 
Q 1506 409 1894 409 
Q 2359 409 2629 706 
Q 2900 1003 2900 1516 
L 2900 3500 
L 3475 3500 
L 3475 0 
L 2900 0 
L 2900 538 
Q 2691 219 2414 64 
Q 2138 -91 1772 -91 
Q 1169 -91 856 284 
Q 544 659 544 1381 
z
M 1991 3584 
L 1991 3584 
z
" transform="scale(0.015625)"/>
       <path id="DejaVuSans-6e" d="M 3513 2113 
L 3513 0 
L 2938 0 
L 2938 2094 
Q 2938 2591 2744 2837 
Q 2550 3084 2163 3084 
Q 1697 3084 1428 2787 
Q 1159 2491 1159 1978 
L 1159 0 
L 581 0 
L 581 3500 
L 1159 3500 
L 1159 2956 
Q 1366 3272 1645 3428 
Q 1925 3584 2291 3584 
Q 2894 3584 3203 3211 
Q 3513 2838 3513 2113 
z
" transform="scale(0.015625)"/>
       <path id="DejaVuSans-74" d="M 1172 4494 
L 1172 3500 
L 2356 3500 
L 2356 3053 
L 1172 3053 
L 1172 1153 
Q 1172 725 1289 603 
Q 1406 481 1766 481 
L 2356 481 
L 2356 0 
L 1766 0 
Q 1100 0 847 248 
Q 594 497 594 1153 
L 594 3053 
L 172 3053 
L 172 3500 
L 594 3500 
L 594 4494 
L 1172 4494 
z
" transform="scale(0.015625)"/>
      </defs>
      <use xlink:href="#DejaVuSans-43"/>
      <use xlink:href="#DejaVuSans-6f" x="69.824219"/>
      <use xlink:href="#DejaVuSans-75" x="131.005859"/>
      <use xlink:href="#DejaVuSans-6e" x="194.384766"/>
      <use xlink:href="#DejaVuSans-74" x="257.763672"/>
     </g>
    </g>
   </g>
   <g id="matplotlib.axis_2">
    <g id="ytick_1">
     <g id="text_8">
      <!-- GGGGGGGG -->
      <g transform="translate(7.2 22.291549) scale(0.08 -0.08)">
       <defs>
        <path id="DejaVuSans-47" d="M 3809 666 
L 3809 1919 
L 2778 1919 
L 2778 2438 
L 4434 2438 
L 4434 434 
Q 4069 175 3628 42 
Q 3188 -91 2688 -91 
Q 1594 -91 976 548 
Q 359 1188 359 2328 
Q 359 3472 976 4111 
Q 1594 4750 2688 4750 
Q 3144 4750 3555 4637 
Q 3966 4525 4313 4306 
L 4313 3634 
Q 3963 3931 3569 4081 
Q 3175 4231 2741 4231 
Q 1884 4231 1454 3753 
Q 1025 3275 1025 2328 
Q 1025 1384 1454 906 
Q 1884 428 2741 428 
Q 3075 428 3337 486 
Q 3600 544 3809 666 
z
" transform="scale(0.015625)"/>
       </defs>
       <use xlink:href="#DejaVuSans-47"/>
       <use xlink:href="#DejaVuSans-47" x="77.490234"/>
       <use xlink:href="#DejaVuSans-47" x="154.980469"/>
       <use xlink:href="#DejaVuSans-47" x="232.470703"/>
       <use xlink:href="#DejaVuSans-47" x="309.960938"/>
       <use xlink:href="#DejaVuSans-47" x="387.451172"/>
       <use xlink:href="#DejaVuSans-47" x="464.941406"/>
       <use xlink:href="#DejaVuSans-47" x="542.431641"/>
      </g>
     </g>
    </g>
    <g id="ytick_2">
     <g id="text_9">
      <!-- AAAAAAAA -->
      <g transform="translate(11.47 46.395897) scale(0.08 -0.08)">
       <defs>
        <path id="DejaVuSans-41" d="M 2188 4044 
L 1331 1722 
L 3047 1722 
L 2188 4044 
z
M 1831 4666 
L 2547 4666 
L 4325 0 
L 3669 0 
L 3244 1197 
L 1141 1197 
L 716 0 
L 50 0 
L 1831 4666 
z
" transform="scale(0.015625)"/>
       </defs>
       <use xlink:href="#DejaVuSans-41"/>
       <use xlink:href="#DejaVuSans-41" x="71.158203"/>
       <use xlink:href="#DejaVuSans-41" x="142.316406"/>
       <use xlink:href="#DejaVuSans-41" x="213.474609"/>
       <use xlink:href="#DejaVuSans-41" x="284.632812"/>
       <use xlink:href="#DejaVuSans-41" x="355.791016"/>
       <use xlink:href="#DejaVuSans-41" x="426.949219"/>
       <use xlink:href="#DejaVuSans-41" x="498.107422"/>
      </g>
     </g>
    </g>
    <g id="ytick_3">
     <g id="text_10">
      <!-- GAACGGTT -->
      <g transform="translate(12.24 70.500245) scale(0.08 -0.08)">
       <defs>
        <path id="DejaVuSans-54" d="M -19 4666 
L 3928 4666 
L 3928 4134 
L 2272 4134 
L 2272 0 
L 1638 0 
L 1638 4134 
L -19 4134 
L -19 4666 
z
" transform="scale(0.015625)"/>
       </defs>
       <use xlink:href="#DejaVuSans-47"/>
       <use xlink:href="#DejaVuSans-41" x="77.490234"/>
       <use xlink:href="#DejaVuSans-41" x="148.648438"/>
       <use xlink:href="#DejaVuSans-43" x="215.306641"/>
       <use xlink:href="#DejaVuSans-47" x="285.130859"/>
       <use xlink:href="#DejaVuSans-47" x="362.621094"/>
       <use xlink:href="#DejaVuSans-54" x="436.486328"/>
       <use xlink:href="#DejaVuSans-54" x="495.820312"/>
      </g>
     </g>
    </g>
    <g id="ytick_4">
     <g id="text_11">
      <!-- GGAATGTC -->
      <g transform="translate(13.05 94.604592) scale(0.08 -0.08)">
       <use xlink:href="#DejaVuSans-47"/>
       <use xlink:href="#DejaVuSans-47" x="77.490234"/>
       <use xlink:href="#DejaVuSans-41" x="154.980469"/>
       <use xlink:href="#DejaVuSans-41" x="226.138672"/>
       <use xlink:href="#DejaVuSans-54" x="286.796875"/>
       <use xlink:href="#DejaVuSans-47" x="347.880859"/>
       <use xlink:href="#DejaVuSans-54" x="421.746094"/>
       <use xlink:href="#DejaVuSans-43" x="476.955078"/>
      </g>
     </g>
    </g>
    <g id="ytick_5">
     <g id="text_12">
      <!-- GAGAGTAC -->
      <g transform="translate(12.63375 118.70894) scale(0.08 -0.08)">
       <use xlink:href="#DejaVuSans-47"/>
       <use xlink:href="#DejaVuSans-41" x="77.490234"/>
       <use xlink:href="#DejaVuSans-47" x="144.148438"/>
       <use xlink:href="#DejaVuSans-41" x="221.638672"/>
       <use xlink:href="#DejaVuSans-47" x="288.296875"/>
       <use xlink:href="#DejaVuSans-54" x="362.162109"/>
       <use xlink:href="#DejaVuSans-41" x="415.496094"/>
       <use xlink:href="#DejaVuSans-43" x="482.154297"/>
      </g>
     </g>
    </g>
    <g id="ytick_6">
     <g id="text_13">
      <!-- NNNNNNNN -->
      <g transform="translate(8.91 142.813288) scale(0.08 -0.08)">
       <defs>
        <path id="DejaVuSans-4e" d="M 628 4666 
L 1478 4666 
L 3547 763 
L 3547 4666 
L 4159 4666 
L 4159 0 
L 3309 0 
L 1241 3903 
L 1241 0 
L 628 0 
L 628 4666 
z
" transform="scale(0.015625)"/>
       </defs>
       <use xlink:href="#DejaVuSans-4e"/>
       <use xlink:href="#DejaVuSans-4e" x="74.804688"/>
       <use xlink:href="#DejaVuSans-4e" x="149.609375"/>
       <use xlink:href="#DejaVuSans-4e" x="224.414062"/>
       <use xlink:href="#DejaVuSans-4e" x="299.21875"/>
       <use xlink:href="#DejaVuSans-4e" x="374.023438"/>
       <use xlink:href="#DejaVuSans-4e" x="448.828125"/>
       <use xlink:href="#DejaVuSans-4e" x="523.632812"/>
      </g>
     </g>
    </g>
    <g id="ytick_7">
     <g id="text_14">
      <!-- TCATCTCC -->
      <g transform="translate(16.34375 166.917636) scale(0.08 -0.08)">
       <use xlink:href="#DejaVuSans-54"/>
       <use xlink:href="#DejaVuSans-43" x="55.208984"/>
       <use xlink:href="#DejaVuSans-41" x="125.033203"/>
       <use xlink:href="#DejaVuSans-54" x="185.691406"/>
       <use xlink:href="#DejaVuSans-43" x="240.900391"/>
       <use xlink:href="#DejaVuSans-54" x="310.724609"/>
       <use xlink:href="#DejaVuSans-43" x="365.933594"/>
       <use xlink:href="#DejaVuSans-43" x="435.757812"/>
      </g>
     </g>
    </g>
    <g id="ytick_8">
     <g id="text_15">
      <!-- CAAAAAAA -->
      <g transform="translate(11.57625 191.021984) scale(0.08 -0.08)">
       <use xlink:href="#DejaVuSans-43"/>
       <use xlink:href="#DejaVuSans-41" x="69.824219"/>
       <use xlink:href="#DejaVuSans-41" x="140.982422"/>
       <use xlink:href="#DejaVuSans-41" x="212.140625"/>
       <use xlink:href="#DejaVuSans-41" x="283.298828"/>
       <use xlink:href="#DejaVuSans-41" x="354.457031"/>
       <use xlink:href="#DejaVuSans-41" x="425.615234"/>
       <use xlink:href="#DejaVuSans-41" x="496.773438"/>
      </g>
     </g>
    </g>
    <g id="ytick_9">
     <g id="text_16">
      <!-- GGAGGAAT -->
      <g transform="translate(11.23125 215.126332) scale(0.08 -0.08)">
       <use xlink:href="#DejaVuSans-47"/>
       <use xlink:href="#DejaVuSans-47" x="77.490234"/>
       <use xlink:href="#DejaVuSans-41" x="154.980469"/>
       <use xlink:href="#DejaVuSans-47" x="221.638672"/>
       <use xlink:href="#DejaVuSans-47" x="299.128906"/>
       <use xlink:href="#DejaVuSans-41" x="376.619141"/>
       <use xlink:href="#DejaVuSans-41" x="447.777344"/>
       <use xlink:href="#DejaVuSans-54" x="508.435547"/>
      </g>
     </g>
    </g>
    <g id="ytick_10">
     <g id="text_17">
      <!-- TCGCGGAG -->
      <g transform="translate(11.07375 239.230679) scale(0.08 -0.08)">
       <use xlink:href="#DejaVuSans-54"/>
       <use xlink:href="#DejaVuSans-43" x="55.208984"/>
       <use xlink:href="#DejaVuSans-47" x="125.033203"/>
       <use xlink:href="#DejaVuSans-43" x="202.523438"/>
       <use xlink:href="#DejaVuSans-47" x="272.347656"/>
       <use xlink:href="#DejaVuSans-47" x="349.837891"/>
       <use xlink:href="#DejaVuSans-41" x="427.328125"/>
       <use xlink:href="#DejaVuSans-47" x="493.986328"/>
      </g>
     </g>
    </g>
    <g id="ytick_11">
     <g id="text_18">
      <!-- CTTGCTAG -->
      <g transform="translate(13.98875 263.335027) scale(0.08 -0.08)">
       <use xlink:href="#DejaVuSans-43"/>
       <use xlink:href="#DejaVuSans-54" x="69.824219"/>
       <use xlink:href="#DejaVuSans-54" x="129.158203"/>
       <use xlink:href="#DejaVuSans-47" x="190.242188"/>
       <use xlink:href="#DejaVuSans-43" x="267.732422"/>
       <use xlink:href="#DejaVuSans-54" x="337.556641"/>
       <use xlink:href="#DejaVuSans-41" x="390.890625"/>
       <use xlink:href="#DejaVuSans-47" x="457.548828"/>
      </g>
     </g>
    </g>
    <g id="ytick_12">
     <g id="text_19">
      <!-- AGCTAAGC -->
      <g transform="translate(12.59625 287.439375) scale(0.08 -0.08)">
       <use xlink:href="#DejaVuSans-41"/>
       <use xlink:href="#DejaVuSans-47" x="66.658203"/>
       <use xlink:href="#DejaVuSans-43" x="144.148438"/>
       <use xlink:href="#DejaVuSans-54" x="213.972656"/>
       <use xlink:href="#DejaVuSans-41" x="267.306641"/>
       <use xlink:href="#DejaVuSans-41" x="338.464844"/>
       <use xlink:href="#DejaVuSans-47" x="405.123047"/>
       <use xlink:href="#DejaVuSans-43" x="482.613281"/>
      </g>
     </g>
    </g>
    <g id="ytick_13">
     <g id="text_20">
      <!-- AACAAAAA -->
      <g transform="translate(11.93625 311.543723) scale(0.08 -0.08)">
       <use xlink:href="#DejaVuSans-41"/>
       <use xlink:href="#DejaVuSans-41" x="71.158203"/>
       <use xlink:href="#DejaVuSans-43" x="137.816406"/>
       <use xlink:href="#DejaVuSans-41" x="207.640625"/>
       <use xlink:href="#DejaVuSans-41" x="278.798828"/>
       <use xlink:href="#DejaVuSans-41" x="349.957031"/>
       <use xlink:href="#DejaVuSans-41" x="421.115234"/>
       <use xlink:href="#DejaVuSans-41" x="492.273438"/>
      </g>
     </g>
    </g>
    <g id="ytick_14">
     <g id="text_21">
      <!-- AAAAAACA -->
      <g transform="translate(11.93625 335.648071) scale(0.08 -0.08)">
       <use xlink:href="#DejaVuSans-41"/>
       <use xlink:href="#DejaVuSans-41" x="71.158203"/>
       <use xlink:href="#DejaVuSans-41" x="142.316406"/>
       <use xlink:href="#DejaVuSans-41" x="213.474609"/>
       <use xlink:href="#DejaVuSans-41" x="284.632812"/>
       <use xlink:href="#DejaVuSans-41" x="355.791016"/>
       <use xlink:href="#DejaVuSans-43" x="422.449219"/>
       <use xlink:href="#DejaVuSans-41" x="492.273438"/>
      </g>
     </g>
    </g>
    <g id="ytick_15">
     <g id="text_22">
      <!-- AACAAACA -->
      <g transform="translate(12.4025 359.752418) scale(0.08 -0.08)">
       <use xlink:href="#DejaVuSans-41"/>
       <use xlink:href="#DejaVuSans-41" x="71.158203"/>
       <use xlink:href="#DejaVuSans-43" x="137.816406"/>
       <use xlink:href="#DejaVuSans-41" x="207.640625"/>
       <use xlink:href="#DejaVuSans-41" x="278.798828"/>
       <use xlink:href="#DejaVuSans-41" x="349.957031"/>
       <use xlink:href="#DejaVuSans-43" x="416.615234"/>
       <use xlink:href="#DejaVuSans-41" x="486.439453"/>
      </g>
     </g>
    </g>
    <g id="ytick_16">
     <g id="text_23">
      <!-- CAAAAACA -->
      <g transform="translate(12.0425 383.856766) scale(0.08 -0.08)">
       <use xlink:href="#DejaVuSans-43"/>
       <use xlink:href="#DejaVuSans-41" x="69.824219"/>
       <use xlink:href="#DejaVuSans-41" x="140.982422"/>
       <use xlink:href="#DejaVuSans-41" x="212.140625"/>
       <use xlink:href="#DejaVuSans-41" x="283.298828"/>
       <use xlink:href="#DejaVuSans-41" x="354.457031"/>
       <use xlink:href="#DejaVuSans-43" x="421.115234"/>
       <use xlink:href="#DejaVuSans-41" x="490.939453"/>
      </g>
     </g>
    </g>
    <g id="ytick_17">
     <g id="text_24">
      <!-- CAACAAAA -->
      <g transform="translate(12.0425 407.961114) scale(0.08 -0.08)">
       <use xlink:href="#DejaVuSans-43"/>
       <use xlink:href="#DejaVuSans-41" x="69.824219"/>
       <use xlink:href="#DejaVuSans-41" x="140.982422"/>
       <use xlink:href="#DejaVuSans-43" x="207.640625"/>
       <use xlink:href="#DejaVuSans-41" x="277.464844"/>
       <use xlink:href="#DejaVuSans-41" x="348.623047"/>
       <use xlink:href="#DejaVuSans-41" x="419.78125"/>
       <use xlink:href="#DejaVuSans-41" x="490.939453"/>
      </g>
     </g>
    </g>
    <g id="ytick_18">
     <g id="text_25">
      <!-- AAAAACAA -->
      <g transform="translate(11.93625 432.065462) scale(0.08 -0.08)">
       <use xlink:href="#DejaVuSans-41"/>
       <use xlink:href="#DejaVuSans-41" x="71.158203"/>
       <use xlink:href="#DejaVuSans-41" x="142.316406"/>
       <use xlink:href="#DejaVuSans-41" x="213.474609"/>
       <use xlink:href="#DejaVuSans-41" x="284.632812"/>
       <use xlink:href="#DejaVuSans-43" x="351.291016"/>
       <use xlink:href="#DejaVuSans-41" x="421.115234"/>
       <use xlink:href="#DejaVuSans-41" x="492.273438"/>
      </g>
     </g>
    </g>
    <g id="ytick_19">
     <g id="text_26">
      <!-- CAAAAAAC -->
      <g transform="translate(11.8225 456.16981) scale(0.08 -0.08)">
       <use xlink:href="#DejaVuSans-43"/>
       <use xlink:href="#DejaVuSans-41" x="69.824219"/>
       <use xlink:href="#DejaVuSans-41" x="140.982422"/>
       <use xlink:href="#DejaVuSans-41" x="212.140625"/>
       <use xlink:href="#DejaVuSans-41" x="283.298828"/>
       <use xlink:href="#DejaVuSans-41" x="354.457031"/>
       <use xlink:href="#DejaVuSans-41" x="425.615234"/>
       <use xlink:href="#DejaVuSans-43" x="492.273438"/>
      </g>
     </g>
    </g>
    <g id="ytick_20">
     <g id="text_27">
      <!-- CAGTGCTT -->
      <g transform="translate(13.65875 480.274158) scale(0.08 -0.08)">
       <use xlink:href="#DejaVuSans-43"/>
       <use xlink:href="#DejaVuSans-41" x="69.824219"/>
       <use xlink:href="#DejaVuSans-47" x="136.482422"/>
       <use xlink:href="#DejaVuSans-54" x="210.347656"/>
       <use xlink:href="#DejaVuSans-47" x="271.431641"/>
       <use xlink:href="#DejaVuSans-43" x="348.921875"/>
       <use xlink:href="#DejaVuSans-54" x="418.746094"/>
       <use xlink:href="#DejaVuSans-54" x="478.080078"/>
      </g>
     </g>
    </g>
   </g>
   <g id="patch_2">
    <path d="M 63.79 9.610435 
L 425.06457 9.610435 
L 425.06457 28.893913 
L 63.79 28.893913 
z
" clip-path="url(#p3db791a411)" style="fill: #7cb5ec"/>
   </g>
   <g id="patch_3">
    <path d="M 63.79 33.714783 
L 507.320203 33.714783 
L 507.320203 52.998261 
L 63.79 52.998261 
z
" clip-path="url(#p3db791a411)" style="fill: #7cb5ec"/>
   </g>
   <g id="patch_4">
    <path d="M 63.79 57.81913 
L 63.79 57.81913 
L 63.79 77.102609 
L 63.79 77.102609 
z
" clip-path="url(#p3db791a411)" style="fill: #7cb5ec"/>
   </g>
   <g id="patch_5">
    <path d="M 63.79 81.923478 
L 63.79 81.923478 
L 63.79 101.206957 
L 63.79 101.206957 
z
" clip-path="url(#p3db791a411)" style="fill: #7cb5ec"/>
   </g>
   <g id="patch_6">
    <path d="M 63.79 106.027826 
L 63.79 106.027826 
L 63.79 125.311304 
L 63.79 125.311304 
z
" clip-path="url(#p3db791a411)" style="fill: #7cb5ec"/>
   </g>
   <g id="patch_7">
    <path d="M 63.79 130.132174 
L 63.79 130.132174 
L 63.79 149.415652 
L 63.79 149.415652 
z
" clip-path="url(#p3db791a411)" style="fill: #7cb5ec"/>
   </g>
   <g id="patch_8">
    <path d="M 63.79 154.236522 
L 63.79 154.236522 
L 63.79 173.52 
L 63.79 173.52 
z
" clip-path="url(#p3db791a411)" style="fill: #7cb5ec"/>
   </g>
   <g id="patch_9">
    <path d="M 63.79 178.34087 
L 292.811008 178.34087 
L 292.811008 197.624348 
L 63.79 197.624348 
z
" clip-path="url(#p3db791a411)" style="fill: #7cb5ec"/>
   </g>
   <g id="patch_10">
    <path d="M 63.79 202.445217 
L 63.79 202.445217 
L 63.79 221.728696 
L 63.79 221.728696 
z
" clip-path="url(#p3db791a411)" style="fill: #7cb5ec"/>
   </g>
   <g id="patch_11">
    <path d="M 63.79 226.549565 
L 451.282779 226.549565 
L 451.282779 245.833043 
L 63.79 245.833043 
z
" clip-path="url(#p3db791a411)" style="fill: #7cb5ec"/>
   </g>
   <g id="patch_12">
    <path d="M 63.79 250.653913 
L 63.79 250.653913 
L 63.79 269.937391 
L 63.79 269.937391 
z
" clip-path="url(#p3db791a411)" style="fill: #7cb5ec"/>
   </g>
   <g id="patch_13">
    <path d="M 63.79 274.758261 
L 63.79 274.758261 
L 63.79 294.041739 
L 63.79 294.041739 
z
" clip-path="url(#p3db791a411)" style="fill: #7cb5ec"/>
   </g>
   <g id="patch_14">
    <path d="M 63.79 298.862609 
L 185.612008 298.862609 
L 185.612008 318.146087 
L 63.79 318.146087 
z
" clip-path="url(#p3db791a411)" style="fill: #7cb5ec"/>
   </g>
   <g id="patch_15">
    <path d="M 63.79 322.966957 
L 188.178498 322.966957 
L 188.178498 342.250435 
L 63.79 342.250435 
z
" clip-path="url(#p3db791a411)" style="fill: #7cb5ec"/>
   </g>
   <g id="patch_16">
    <path d="M 63.79 347.071304 
L 173.082142 347.071304 
L 173.082142 366.354783 
L 63.79 366.354783 
z
" clip-path="url(#p3db791a411)" style="fill: #7cb5ec"/>
   </g>
   <g id="patch_17">
    <path d="M 63.79 371.175652 
L 201.917263 371.175652 
L 201.917263 390.45913 
L 63.79 390.45913 
z
" clip-path="url(#p3db791a411)" style="fill: #7cb5ec"/>
   </g>
   <g id="patch_18">
    <path d="M 63.79 395.28 
L 215.663388 395.28 
L 215.663388 414.563478 
L 63.79 414.563478 
z
" clip-path="url(#p3db791a411)" style="fill: #7cb5ec"/>
   </g>
   <g id="patch_19">
    <path d="M 63.79 419.384348 
L 234.43056 419.384348 
L 234.43056 438.667826 
L 63.79 438.667826 
z
" clip-path="url(#p3db791a411)" style="fill: #7cb5ec"/>
   </g>
   <g id="patch_20">
    <path d="M 63.79 443.488696 
L 193.398434 443.488696 
L 193.398434 462.772174 
L 63.79 462.772174 
z
" clip-path="url(#p3db791a411)" style="fill: #7cb5ec"/>
   </g>
   <g id="patch_21">
    <path d="M 63.79 467.593043 
L 63.79 467.593043 
L 63.79 486.876522 
L 63.79 486.876522 
z
" clip-path="url(#p3db791a411)" style="fill: #7cb5ec"/>
   </g>
   <g id="patch_22">
    <path d="M 425.06457 9.610435 
L 786.308489 9.610435 
L 786.308489 28.893913 
L 425.06457 28.893913 
z
" clip-path="url(#p3db791a411)" style="fill: #434348"/>
   </g>
   <g id="patch_23">
    <path d="M 507.320203 33.714783 
L 844.99 33.714783 
L 844.99 52.998261 
L 507.320203 52.998261 
z
" clip-path="url(#p3db791a411)" style="fill: #434348"/>
   </g>
   <g id="patch_24">
    <path d="M 63.79 57.81913 
L 63.79 57.81913 
L 63.79 77.102609 
L 63.79 77.102609 
z
" clip-path="url(#p3db791a411)" style="fill: #434348"/>
   </g>
   <g id="patch_25">
    <path d="M 63.79 81.923478 
L 63.79 81.923478 
L 63.79 101.206957 
L 63.79 101.206957 
z
" clip-path="url(#p3db791a411)" style="fill: #434348"/>
   </g>
   <g id="patch_26">
    <path d="M 63.79 106.027826 
L 63.79 106.027826 
L 63.79 125.311304 
L 63.79 125.311304 
z
" clip-path="url(#p3db791a411)" style="fill: #434348"/>
   </g>
   <g id="patch_27">
    <path d="M 63.79 130.132174 
L 63.79 130.132174 
L 63.79 149.415652 
L 63.79 149.415652 
z
" clip-path="url(#p3db791a411)" style="fill: #434348"/>
   </g>
   <g id="patch_28">
    <path d="M 63.79 154.236522 
L 63.79 154.236522 
L 63.79 173.52 
L 63.79 173.52 
z
" clip-path="url(#p3db791a411)" style="fill: #434348"/>
   </g>
   <g id="patch_29">
    <path d="M 292.811008 178.34087 
L 477.380681 178.34087 
L 477.380681 197.624348 
L 292.811008 197.624348 
z
" clip-path="url(#p3db791a411)" style="fill: #434348"/>
   </g>
   <g id="patch_30">
    <path d="M 63.79 202.445217 
L 63.79 202.445217 
L 63.79 221.728696 
L 63.79 221.728696 
z
" clip-path="url(#p3db791a411)" style="fill: #434348"/>
   </g>
   <g id="patch_31">
    <path d="M 451.282779 226.549565 
L 844.99 226.549565 
L 844.99 245.833043 
L 451.282779 245.833043 
z
" clip-path="url(#p3db791a411)" style="fill: #434348"/>
   </g>
   <g id="patch_32">
    <path d="M 63.79 250.653913 
L 63.79 250.653913 
L 63.79 269.937391 
L 63.79 269.937391 
z
" clip-path="url(#p3db791a411)" style="fill: #434348"/>
   </g>
   <g id="patch_33">
    <path d="M 63.79 274.758261 
L 63.79 274.758261 
L 63.79 294.041739 
L 63.79 294.041739 
z
" clip-path="url(#p3db791a411)" style="fill: #434348"/>
   </g>
   <g id="patch_34">
    <path d="M 185.612008 298.862609 
L 313.901717 298.862609 
L 313.901717 318.146087 
L 185.612008 318.146087 
z
" clip-path="url(#p3db791a411)" style="fill: #434348"/>
   </g>
   <g id="patch_35">
    <path d="M 188.178498 322.966957 
L 312.064077 322.966957 
L 312.064077 342.250435 
L 188.178498 342.250435 
z
" clip-path="url(#p3db791a411)" style="fill: #434348"/>
   </g>
   <g id="patch_36">
    <path d="M 173.082142 347.071304 
L 292.114114 347.071304 
L 292.114114 366.354783 
L 173.082142 366.354783 
z
" clip-path="url(#p3db791a411)" style="fill: #434348"/>
   </g>
   <g id="patch_37">
    <path d="M 201.917263 371.175652 
L 348.701003 371.175652 
L 348.701003 390.45913 
L 201.917263 390.45913 
z
" clip-path="url(#p3db791a411)" style="fill: #434348"/>
   </g>
   <g id="patch_38">
    <path d="M 215.663388 395.28 
L 380.949233 395.28 
L 380.949233 414.563478 
L 215.663388 414.563478 
z
" clip-path="url(#p3db791a411)" style="fill: #434348"/>
   </g>
   <g id="patch_39">
    <path d="M 234.43056 419.384348 
L 417.946525 419.384348 
L 417.946525 438.667826 
L 234.43056 438.667826 
z
" clip-path="url(#p3db791a411)" style="fill: #434348"/>
   </g>
   <g id="patch_40">
    <path d="M 193.398434 443.488696 
L 336.261646 443.488696 
L 336.261646 462.772174 
L 193.398434 462.772174 
z
" clip-path="url(#p3db791a411)" style="fill: #434348"/>
   </g>
   <g id="patch_41">
    <path d="M 63.79 467.593043 
L 63.79 467.593043 
L 63.79 486.876522 
L 63.79 486.876522 
z
" clip-path="url(#p3db791a411)" style="fill: #434348"/>
   </g>
   <g id="patch_42">
    <path d="M 786.308489 9.610435 
L 801.007905 9.610435 
L 801.007905 28.893913 
L 786.308489 28.893913 
z
" clip-path="url(#p3db791a411)" style="fill: #90ed7d"/>
   </g>
   <g id="patch_43">
    <path d="M 844.99 33.714783 
L 844.99 33.714783 
L 844.99 52.998261 
L 844.99 52.998261 
z
" clip-path="url(#p3db791a411)" style="fill: #90ed7d"/>
   </g>
   <g id="patch_44">
    <path d="M 63.79 57.81913 
L 63.79 57.81913 
L 63.79 77.102609 
L 63.79 77.102609 
z
" clip-path="url(#p3db791a411)" style="fill: #90ed7d"/>
   </g>
   <g id="patch_45">
    <path d="M 63.79 81.923478 
L 63.79 81.923478 
L 63.79 101.206957 
L 63.79 101.206957 
z
" clip-path="url(#p3db791a411)" style="fill: #90ed7d"/>
   </g>
   <g id="patch_46">
    <path d="M 63.79 106.027826 
L 63.79 106.027826 
L 63.79 125.311304 
L 63.79 125.311304 
z
" clip-path="url(#p3db791a411)" style="fill: #90ed7d"/>
   </g>
   <g id="patch_47">
    <path d="M 63.79 130.132174 
L 458.232062 130.132174 
L 458.232062 149.415652 
L 63.79 149.415652 
z
" clip-path="url(#p3db791a411)" style="fill: #90ed7d"/>
   </g>
   <g id="patch_48">
    <path d="M 63.79 154.236522 
L 63.79 154.236522 
L 63.79 173.52 
L 63.79 173.52 
z
" clip-path="url(#p3db791a411)" style="fill: #90ed7d"/>
   </g>
   <g id="patch_49">
    <path d="M 477.380681 178.34087 
L 662.648262 178.34087 
L 662.648262 197.624348 
L 477.380681 197.624348 
z
" clip-path="url(#p3db791a411)" style="fill: #90ed7d"/>
   </g>
   <g id="patch_50">
    <path d="M 63.79 202.445217 
L 63.79 202.445217 
L 63.79 221.728696 
L 63.79 221.728696 
z
" clip-path="url(#p3db791a411)" style="fill: #90ed7d"/>
   </g>
   <g id="patch_51">
    <path d="M 844.99 226.549565 
L 844.99 226.549565 
L 844.99 245.833043 
L 844.99 245.833043 
z
" clip-path="url(#p3db791a411)" style="fill: #90ed7d"/>
   </g>
   <g id="patch_52">
    <path d="M 63.79 250.653913 
L 63.79 250.653913 
L 63.79 269.937391 
L 63.79 269.937391 
z
" clip-path="url(#p3db791a411)" style="fill: #90ed7d"/>
   </g>
   <g id="patch_53">
    <path d="M 63.79 274.758261 
L 63.79 274.758261 
L 63.79 294.041739 
L 63.79 294.041739 
z
" clip-path="url(#p3db791a411)" style="fill: #90ed7d"/>
   </g>
   <g id="patch_54">
    <path d="M 313.901717 298.862609 
L 581.942882 298.862609 
L 581.942882 318.146087 
L 313.901717 318.146087 
z
" clip-path="url(#p3db791a411)" style="fill: #90ed7d"/>
   </g>
   <g id="patch_55">
    <path d="M 312.064077 322.966957 
L 577.730751 322.966957 
L 577.730751 342.250435 
L 312.064077 342.250435 
z
" clip-path="url(#p3db791a411)" style="fill: #90ed7d"/>
   </g>
   <g id="patch_56">
    <path d="M 292.114114 347.071304 
L 570.542167 347.071304 
L 570.542167 366.354783 
L 292.114114 366.354783 
z
" clip-path="url(#p3db791a411)" style="fill: #90ed7d"/>
   </g>
   <g id="patch_57">
    <path d="M 348.701003 371.175652 
L 594.234444 371.175652 
L 594.234444 390.45913 
L 348.701003 390.45913 
z
" clip-path="url(#p3db791a411)" style="fill: #90ed7d"/>
   </g>
   <g id="patch_58">
    <path d="M 380.949233 395.28 
L 617.885837 395.28 
L 617.885837 414.563478 
L 380.949233 414.563478 
z
" clip-path="url(#p3db791a411)" style="fill: #90ed7d"/>
   </g>
   <g id="patch_59">
    <path d="M 417.946525 419.384348 
L 631.468263 419.384348 
L 631.468263 438.667826 
L 417.946525 438.667826 
z
" clip-path="url(#p3db791a411)" style="fill: #90ed7d"/>
   </g>
   <g id="patch_60">
    <path d="M 336.261646 443.488696 
L 588.989773 443.488696 
L 588.989773 462.772174 
L 336.261646 462.772174 
z
" clip-path="url(#p3db791a411)" style="fill: #90ed7d"/>
   </g>
   <g id="patch_61">
    <path d="M 63.79 467.593043 
L 63.79 467.593043 
L 63.79 486.876522 
L 63.79 486.876522 
z
" clip-path="url(#p3db791a411)" style="fill: #90ed7d"/>
   </g>
   <g id="patch_62">
    <path d="M 801.007905 9.610435 
L 815.894208 9.610435 
L 815.894208 28.893913 
L 801.007905 28.893913 
z
" clip-path="url(#p3db791a411)" style="fill: #f7a35c"/>
   </g>
   <g id="patch_63">
    <path d="M 844.99 33.714783 
L 844.99 33.714783 
L 844.99 52.998261 
L 844.99 52.998261 
z
" clip-path="url(#p3db791a411)" style="fill: #f7a35c"/>
   </g>
   <g id="patch_64">
    <path d="M 63.79 57.81913 
L 63.79 57.81913 
L 63.79 77.102609 
L 63.79 77.102609 
z
" clip-path="url(#p3db791a411)" style="fill: #f7a35c"/>
   </g>
   <g id="patch_65">
    <path d="M 63.79 81.923478 
L 63.79 81.923478 
L 63.79 101.206957 
L 63.79 101.206957 
z
" clip-path="url(#p3db791a411)" style="fill: #f7a35c"/>
   </g>
   <g id="patch_66">
    <path d="M 63.79 106.027826 
L 63.79 106.027826 
L 63.79 125.311304 
L 63.79 125.311304 
z
" clip-path="url(#p3db791a411)" style="fill: #f7a35c"/>
   </g>
   <g id="patch_67">
    <path d="M 458.232062 130.132174 
L 844.99 130.132174 
L 844.99 149.415652 
L 458.232062 149.415652 
z
" clip-path="url(#p3db791a411)" style="fill: #f7a35c"/>
   </g>
   <g id="patch_68">
    <path d="M 63.79 154.236522 
L 63.79 154.236522 
L 63.79 173.52 
L 63.79 173.52 
z
" clip-path="url(#p3db791a411)" style="fill: #f7a35c"/>
   </g>
   <g id="patch_69">
    <path d="M 662.648262 178.34087 
L 844.99 178.34087 
L 844.99 197.624348 
L 662.648262 197.624348 
z
" clip-path="url(#p3db791a411)" style="fill: #f7a35c"/>
   </g>
   <g id="patch_70">
    <path d="M 63.79 202.445217 
L 63.79 202.445217 
L 63.79 221.728696 
L 63.79 221.728696 
z
" clip-path="url(#p3db791a411)" style="fill: #f7a35c"/>
   </g>
   <g id="patch_71">
    <path d="M 844.99 226.549565 
L 844.99 226.549565 
L 844.99 245.833043 
L 844.99 245.833043 
z
" clip-path="url(#p3db791a411)" style="fill: #f7a35c"/>
   </g>
   <g id="patch_72">
    <path d="M 63.79 250.653913 
L 63.79 250.653913 
L 63.79 269.937391 
L 63.79 269.937391 
z
" clip-path="url(#p3db791a411)" style="fill: #f7a35c"/>
   </g>
   <g id="patch_73">
    <path d="M 63.79 274.758261 
L 63.79 274.758261 
L 63.79 294.041739 
L 63.79 294.041739 
z
" clip-path="url(#p3db791a411)" style="fill: #f7a35c"/>
   </g>
   <g id="patch_74">
    <path d="M 581.942882 298.862609 
L 844.99 298.862609 
L 844.99 318.146087 
L 581.942882 318.146087 
z
" clip-path="url(#p3db791a411)" style="fill: #f7a35c"/>
   </g>
   <g id="patch_75">
    <path d="M 577.730751 322.966957 
L 844.99 322.966957 
L 844.99 342.250435 
L 577.730751 342.250435 
z
" clip-path="url(#p3db791a411)" style="fill: #f7a35c"/>
   </g>
   <g id="patch_76">
    <path d="M 570.542167 347.071304 
L 844.99 347.071304 
L 844.99 366.354783 
L 570.542167 366.354783 
z
" clip-path="url(#p3db791a411)" style="fill: #f7a35c"/>
   </g>
   <g id="patch_77">
    <path d="M 594.234444 371.175652 
L 844.99 371.175652 
L 844.99 390.45913 
L 594.234444 390.45913 
z
" clip-path="url(#p3db791a411)" style="fill: #f7a35c"/>
   </g>
   <g id="patch_78">
    <path d="M 617.885837 395.28 
L 844.99 395.28 
L 844.99 414.563478 
L 617.885837 414.563478 
z
" clip-path="url(#p3db791a411)" style="fill: #f7a35c"/>
   </g>
   <g id="patch_79">
    <path d="M 631.468263 419.384348 
L 844.99 419.384348 
L 844.99 438.667826 
L 631.468263 438.667826 
z
" clip-path="url(#p3db791a411)" style="fill: #f7a35c"/>
   </g>
   <g id="patch_80">
    <path d="M 588.989773 443.488696 
L 844.99 443.488696 
L 844.99 462.772174 
L 588.989773 462.772174 
z
" clip-path="url(#p3db791a411)" style="fill: #f7a35c"/>
   </g>
   <g id="patch_81">
    <path d="M 63.79 467.593043 
L 63.79 467.593043 
L 63.79 486.876522 
L 63.79 486.876522 
z
" clip-path="url(#p3db791a411)" style="fill: #f7a35c"/>
   </g>
   <g id="patch_82">
    <path d="M 815.894208 9.610435 
L 825.650923 9.610435 
L 825.650923 28.893913 
L 815.894208 28.893913 
z
" clip-path="url(#p3db791a411)" style="fill: #8085e9"/>
   </g>
   <g id="patch_83">
    <path d="M 844.99 33.714783 
L 844.99 33.714783 
L 844.99 52.998261 
L 844.99 52.998261 
z
" clip-path="url(#p3db791a411)" style="fill: #8085e9"/>
   </g>
   <g id="patch_84">
    <path d="M 63.79 57.81913 
L 63.79 57.81913 
L 63.79 77.102609 
L 63.79 77.102609 
z
" clip-path="url(#p3db791a411)" style="fill: #8085e9"/>
   </g>
   <g id="patch_85">
    <path d="M 63.79 81.923478 
L 844.99 81.923478 
L 844.99 101.206957 
L 63.79 101.206957 
z
" clip-path="url(#p3db791a411)" style="fill: #8085e9"/>
   </g>
   <g id="patch_86">
    <path d="M 63.79 106.027826 
L 739.526587 106.027826 
L 739.526587 125.311304 
L 63.79 125.311304 
z
" clip-path="url(#p3db791a411)" style="fill: #8085e9"/>
   </g>
   <g id="patch_87">
    <path d="M 844.99 130.132174 
L 844.99 130.132174 
L 844.99 149.415652 
L 844.99 149.415652 
z
" clip-path="url(#p3db791a411)" style="fill: #8085e9"/>
   </g>
   <g id="patch_88">
    <path d="M 63.79 154.236522 
L 186.181793 154.236522 
L 186.181793 173.52 
L 63.79 173.52 
z
" clip-path="url(#p3db791a411)" style="fill: #8085e9"/>
   </g>
   <g id="patch_89">
    <path d="M 844.99 178.34087 
L 844.99 178.34087 
L 844.99 197.624348 
L 844.99 197.624348 
z
" clip-path="url(#p3db791a411)" style="fill: #8085e9"/>
   </g>
   <g id="patch_90">
    <path d="M 63.79 202.445217 
L 63.79 202.445217 
L 63.79 221.728696 
L 63.79 221.728696 
z
" clip-path="url(#p3db791a411)" style="fill: #8085e9"/>
   </g>
   <g id="patch_91">
    <path d="M 844.99 226.549565 
L 844.99 226.549565 
L 844.99 245.833043 
L 844.99 245.833043 
z
" clip-path="url(#p3db791a411)" style="fill: #8085e9"/>
   </g>
   <g id="patch_92">
    <path d="M 63.79 250.653913 
L 844.99 250.653913 
L 844.99 269.937391 
L 63.79 269.937391 
z
" clip-path="url(#p3db791a411)" style="fill: #8085e9"/>
   </g>
   <g id="patch_93">
    <path d="M 63.79 274.758261 
L 844.99 274.758261 
L 844.99 294.041739 
L 63.79 294.041739 
z
" clip-path="url(#p3db791a411)" style="fill: #8085e9"/>
   </g>
   <g id="patch_94">
    <path d="M 844.99 298.862609 
L 844.99 298.862609 
L 844.99 318.146087 
L 844.99 318.146087 
z
" clip-path="url(#p3db791a411)" style="fill: #8085e9"/>
   </g>
   <g id="patch_95">
    <path d="M 844.99 322.966957 
L 844.99 322.966957 
L 844.99 342.250435 
L 844.99 342.250435 
z
" clip-path="url(#p3db791a411)" style="fill: #8085e9"/>
   </g>
   <g id="patch_96">
    <path d="M 844.99 347.071304 
L 844.99 347.071304 
L 844.99 366.354783 
L 844.99 366.354783 
z
" clip-path="url(#p3db791a411)" style="fill: #8085e9"/>
   </g>
   <g id="patch_97">
    <path d="M 844.99 371.175652 
L 844.99 371.175652 
L 844.99 390.45913 
L 844.99 390.45913 
z
" clip-path="url(#p3db791a411)" style="fill: #8085e9"/>
   </g>
   <g id="patch_98">
    <path d="M 844.99 395.28 
L 844.99 395.28 
L 844.99 414.563478 
L 844.99 414.563478 
z
" clip-path="url(#p3db791a411)" style="fill: #8085e9"/>
   </g>
   <g id="patch_99">
    <path d="M 844.99 419.384348 
L 844.99 419.384348 
L 844.99 438.667826 
L 844.99 438.667826 
z
" clip-path="url(#p3db791a411)" style="fill: #8085e9"/>
   </g>
   <g id="patch_100">
    <path d="M 844.99 443.488696 
L 844.99 443.488696 
L 844.99 462.772174 
L 844.99 462.772174 
z
" clip-path="url(#p3db791a411)" style="fill: #8085e9"/>
   </g>
   <g id="patch_101">
    <path d="M 63.79 467.593043 
L 63.79 467.593043 
L 63.79 486.876522 
L 63.79 486.876522 
z
" clip-path="url(#p3db791a411)" style="fill: #8085e9"/>
   </g>
   <g id="patch_102">
    <path d="M 825.650923 9.610435 
L 844.99 9.610435 
L 844.99 28.893913 
L 825.650923 28.893913 
z
" clip-path="url(#p3db791a411)" style="fill: #f15c80"/>
   </g>
   <g id="patch_103">
    <path d="M 844.99 33.714783 
L 844.99 33.714783 
L 844.99 52.998261 
L 844.99 52.998261 
z
" clip-path="url(#p3db791a411)" style="fill: #f15c80"/>
   </g>
   <g id="patch_104">
    <path d="M 63.79 57.81913 
L 844.99 57.81913 
L 844.99 77.102609 
L 63.79 77.102609 
z
" clip-path="url(#p3db791a411)" style="fill: #f15c80"/>
   </g>
   <g id="patch_105">
    <path d="M 844.99 81.923478 
L 844.99 81.923478 
L 844.99 101.206957 
L 844.99 101.206957 
z
" clip-path="url(#p3db791a411)" style="fill: #f15c80"/>
   </g>
   <g id="patch_106">
    <path d="M 739.526587 106.027826 
L 844.99 106.027826 
L 844.99 125.311304 
L 739.526587 125.311304 
z
" clip-path="url(#p3db791a411)" style="fill: #f15c80"/>
   </g>
   <g id="patch_107">
    <path d="M 844.99 130.132174 
L 844.99 130.132174 
L 844.99 149.415652 
L 844.99 149.415652 
z
" clip-path="url(#p3db791a411)" style="fill: #f15c80"/>
   </g>
   <g id="patch_108">
    <path d="M 186.181793 154.236522 
L 844.99 154.236522 
L 844.99 173.52 
L 186.181793 173.52 
z
" clip-path="url(#p3db791a411)" style="fill: #f15c80"/>
   </g>
   <g id="patch_109">
    <path d="M 844.99 178.34087 
L 844.99 178.34087 
L 844.99 197.624348 
L 844.99 197.624348 
z
" clip-path="url(#p3db791a411)" style="fill: #f15c80"/>
   </g>
   <g id="patch_110">
    <path d="M 63.79 202.445217 
L 844.99 202.445217 
L 844.99 221.728696 
L 63.79 221.728696 
z
" clip-path="url(#p3db791a411)" style="fill: #f15c80"/>
   </g>
   <g id="patch_111">
    <path d="M 844.99 226.549565 
L 844.99 226.549565 
L 844.99 245.833043 
L 844.99 245.833043 
z
" clip-path="url(#p3db791a411)" style="fill: #f15c80"/>
   </g>
   <g id="patch_112">
    <path d="M 844.99 250.653913 
L 844.99 250.653913 
L 844.99 269.937391 
L 844.99 269.937391 
z
" clip-path="url(#p3db791a411)" style="fill: #f15c80"/>
   </g>
   <g id="patch_113">
    <path d="M 844.99 274.758261 
L 844.99 274.758261 
L 844.99 294.041739 
L 844.99 294.041739 
z
" clip-path="url(#p3db791a411)" style="fill: #f15c80"/>
   </g>
   <g id="patch_114">
    <path d="M 844.99 298.862609 
L 844.99 298.862609 
L 844.99 318.146087 
L 844.99 318.146087 
z
" clip-path="url(#p3db791a411)" style="fill: #f15c80"/>
   </g>
   <g id="patch_115">
    <path d="M 844.99 322.966957 
L 844.99 322.966957 
L 844.99 342.250435 
L 844.99 342.250435 
z
" clip-path="url(#p3db791a411)" style="fill: #f15c80"/>
   </g>
   <g id="patch_116">
    <path d="M 844.99 347.071304 
L 844.99 347.071304 
L 844.99 366.354783 
L 844.99 366.354783 
z
" clip-path="url(#p3db791a411)" style="fill: #f15c80"/>
   </g>
   <g id="patch_117">
    <path d="M 844.99 371.175652 
L 844.99 371.175652 
L 844.99 390.45913 
L 844.99 390.45913 
z
" clip-path="url(#p3db791a411)" style="fill: #f15c80"/>
   </g>
   <g id="patch_118">
    <path d="M 844.99 395.28 
L 844.99 395.28 
L 844.99 414.563478 
L 844.99 414.563478 
z
" clip-path="url(#p3db791a411)" style="fill: #f15c80"/>
   </g>
   <g id="patch_119">
    <path d="M 844.99 419.384348 
L 844.99 419.384348 
L 844.99 438.667826 
L 844.99 438.667826 
z
" clip-path="url(#p3db791a411)" style="fill: #f15c80"/>
   </g>
   <g id="patch_120">
    <path d="M 844.99 443.488696 
L 844.99 443.488696 
L 844.99 462.772174 
L 844.99 462.772174 
z
" clip-path="url(#p3db791a411)" style="fill: #f15c80"/>
   </g>
   <g id="patch_121">
    <path d="M 63.79 467.593043 
L 844.99 467.593043 
L 844.99 486.876522 
L 63.79 486.876522 
z
" clip-path="url(#p3db791a411)" style="fill: #f15c80"/>
   </g>
   <g id="text_28">
    <!-- bcl2fastq: Undetermined barcodes by lane -->
    <g transform="translate(283.93 -20.52) scale(0.16 -0.16)">
     <defs>
      <path id="DejaVuSans-62" d="M 3116 1747 
Q 3116 2381 2855 2742 
Q 2594 3103 2138 3103 
Q 1681 3103 1420 2742 
Q 1159 2381 1159 1747 
Q 1159 1113 1420 752 
Q 1681 391 2138 391 
Q 2594 391 2855 752 
Q 3116 1113 3116 1747 
z
M 1159 2969 
Q 1341 3281 1617 3432 
Q 1894 3584 2278 3584 
Q 2916 3584 3314 3078 
Q 3713 2572 3713 1747 
Q 3713 922 3314 415 
Q 2916 -91 2278 -91 
Q 1894 -91 1617 61 
Q 1341 213 1159 525 
L 1159 0 
L 581 0 
L 581 4863 
L 1159 4863 
L 1159 2969 
z
" transform="scale(0.015625)"/>
      <path id="DejaVuSans-63" d="M 3122 3366 
L 3122 2828 
Q 2878 2963 2633 3030 
Q 2388 3097 2138 3097 
Q 1578 3097 1268 2742 
Q 959 2388 959 1747 
Q 959 1106 1268 751 
Q 1578 397 2138 397 
Q 2388 397 2633 464 
Q 2878 531 3122 666 
L 3122 134 
Q 2881 22 2623 -34 
Q 2366 -91 2075 -91 
Q 1284 -91 818 406 
Q 353 903 353 1747 
Q 353 2603 823 3093 
Q 1294 3584 2113 3584 
Q 2378 3584 2631 3529 
Q 2884 3475 3122 3366 
z
" transform="scale(0.015625)"/>
      <path id="DejaVuSans-6c" d="M 603 4863 
L 1178 4863 
L 1178 0 
L 603 0 
L 603 4863 
z
" transform="scale(0.015625)"/>
      <path id="DejaVuSans-66" d="M 2375 4863 
L 2375 4384 
L 1825 4384 
Q 1516 4384 1395 4259 
Q 1275 4134 1275 3809 
L 1275 3500 
L 2222 3500 
L 2222 3053 
L 1275 3053 
L 1275 0 
L 697 0 
L 697 3053 
L 147 3053 
L 147 3500 
L 697 3500 
L 697 3744 
Q 697 4328 969 4595 
Q 1241 4863 1831 4863 
L 2375 4863 
z
" transform="scale(0.015625)"/>
      <path id="DejaVuSans-61" d="M 2194 1759 
Q 1497 1759 1228 1600 
Q 959 1441 959 1056 
Q 959 750 1161 570 
Q 1363 391 1709 391 
Q 2188 391 2477 730 
Q 2766 1069 2766 1631 
L 2766 1759 
L 2194 1759 
z
M 3341 1997 
L 3341 0 
L 2766 0 
L 2766 531 
Q 2569 213 2275 61 
Q 1981 -91 1556 -91 
Q 1019 -91 701 211 
Q 384 513 384 1019 
Q 384 1609 779 1909 
Q 1175 2209 1959 2209 
L 2766 2209 
L 2766 2266 
Q 2766 2663 2505 2880 
Q 2244 3097 1772 3097 
Q 1472 3097 1187 3025 
Q 903 2953 641 2809 
L 641 3341 
Q 956 3463 1253 3523 
Q 1550 3584 1831 3584 
Q 2591 3584 2966 3190 
Q 3341 2797 3341 1997 
z
" transform="scale(0.015625)"/>
      <path id="DejaVuSans-73" d="M 2834 3397 
L 2834 2853 
Q 2591 2978 2328 3040 
Q 2066 3103 1784 3103 
Q 1356 3103 1142 2972 
Q 928 2841 928 2578 
Q 928 2378 1081 2264 
Q 1234 2150 1697 2047 
L 1894 2003 
Q 2506 1872 2764 1633 
Q 3022 1394 3022 966 
Q 3022 478 2636 193 
Q 2250 -91 1575 -91 
Q 1294 -91 989 -36 
Q 684 19 347 128 
L 347 722 
Q 666 556 975 473 
Q 1284 391 1588 391 
Q 1994 391 2212 530 
Q 2431 669 2431 922 
Q 2431 1156 2273 1281 
Q 2116 1406 1581 1522 
L 1381 1569 
Q 847 1681 609 1914 
Q 372 2147 372 2553 
Q 372 3047 722 3315 
Q 1072 3584 1716 3584 
Q 2034 3584 2315 3537 
Q 2597 3491 2834 3397 
z
" transform="scale(0.015625)"/>
      <path id="DejaVuSans-71" d="M 947 1747 
Q 947 1113 1208 752 
Q 1469 391 1925 391 
Q 2381 391 2643 752 
Q 2906 1113 2906 1747 
Q 2906 2381 2643 2742 
Q 2381 3103 1925 3103 
Q 1469 3103 1208 2742 
Q 947 2381 947 1747 
z
M 2906 525 
Q 2725 213 2448 61 
Q 2172 -91 1784 -91 
Q 1150 -91 751 415 
Q 353 922 353 1747 
Q 353 2572 751 3078 
Q 1150 3584 1784 3584 
Q 2172 3584 2448 3432 
Q 2725 3281 2906 2969 
L 2906 3500 
L 3481 3500 
L 3481 -1331 
L 2906 -1331 
L 2906 525 
z
" transform="scale(0.015625)"/>
      <path id="DejaVuSans-3a" d="M 750 794 
L 1409 794 
L 1409 0 
L 750 0 
L 750 794 
z
M 750 3309 
L 1409 3309 
L 1409 2516 
L 750 2516 
L 750 3309 
z
" transform="scale(0.015625)"/>
      <path id="DejaVuSans-20" transform="scale(0.015625)"/>
      <path id="DejaVuSans-55" d="M 556 4666 
L 1191 4666 
L 1191 1831 
Q 1191 1081 1462 751 
Q 1734 422 2344 422 
Q 2950 422 3222 751 
Q 3494 1081 3494 1831 
L 3494 4666 
L 4128 4666 
L 4128 1753 
Q 4128 841 3676 375 
Q 3225 -91 2344 -91 
Q 1459 -91 1007 375 
Q 556 841 556 1753 
L 556 4666 
z
" transform="scale(0.015625)"/>
      <path id="DejaVuSans-64" d="M 2906 2969 
L 2906 4863 
L 3481 4863 
L 3481 0 
L 2906 0 
L 2906 525 
Q 2725 213 2448 61 
Q 2172 -91 1784 -91 
Q 1150 -91 751 415 
Q 353 922 353 1747 
Q 353 2572 751 3078 
Q 1150 3584 1784 3584 
Q 2172 3584 2448 3432 
Q 2725 3281 2906 2969 
z
M 947 1747 
Q 947 1113 1208 752 
Q 1469 391 1925 391 
Q 2381 391 2643 752 
Q 2906 1113 2906 1747 
Q 2906 2381 2643 2742 
Q 2381 3103 1925 3103 
Q 1469 3103 1208 2742 
Q 947 2381 947 1747 
z
" transform="scale(0.015625)"/>
      <path id="DejaVuSans-65" d="M 3597 1894 
L 3597 1613 
L 953 1613 
Q 991 1019 1311 708 
Q 1631 397 2203 397 
Q 2534 397 2845 478 
Q 3156 559 3463 722 
L 3463 178 
Q 3153 47 2828 -22 
Q 2503 -91 2169 -91 
Q 1331 -91 842 396 
Q 353 884 353 1716 
Q 353 2575 817 3079 
Q 1281 3584 2069 3584 
Q 2775 3584 3186 3129 
Q 3597 2675 3597 1894 
z
M 3022 2063 
Q 3016 2534 2758 2815 
Q 2500 3097 2075 3097 
Q 1594 3097 1305 2825 
Q 1016 2553 972 2059 
L 3022 2063 
z
" transform="scale(0.015625)"/>
      <path id="DejaVuSans-72" d="M 2631 2963 
Q 2534 3019 2420 3045 
Q 2306 3072 2169 3072 
Q 1681 3072 1420 2755 
Q 1159 2438 1159 1844 
L 1159 0 
L 581 0 
L 581 3500 
L 1159 3500 
L 1159 2956 
Q 1341 3275 1631 3429 
Q 1922 3584 2338 3584 
Q 2397 3584 2469 3576 
Q 2541 3569 2628 3553 
L 2631 2963 
z
" transform="scale(0.015625)"/>
      <path id="DejaVuSans-6d" d="M 3328 2828 
Q 3544 3216 3844 3400 
Q 4144 3584 4550 3584 
Q 5097 3584 5394 3201 
Q 5691 2819 5691 2113 
L 5691 0 
L 5113 0 
L 5113 2094 
Q 5113 2597 4934 2840 
Q 4756 3084 4391 3084 
Q 3944 3084 3684 2787 
Q 3425 2491 3425 1978 
L 3425 0 
L 2847 0 
L 2847 2094 
Q 2847 2600 2669 2842 
Q 2491 3084 2119 3084 
Q 1678 3084 1418 2786 
Q 1159 2488 1159 1978 
L 1159 0 
L 581 0 
L 581 3500 
L 1159 3500 
L 1159 2956 
Q 1356 3278 1631 3431 
Q 1906 3584 2284 3584 
Q 2666 3584 2933 3390 
Q 3200 3197 3328 2828 
z
" transform="scale(0.015625)"/>
      <path id="DejaVuSans-69" d="M 603 3500 
L 1178 3500 
L 1178 0 
L 603 0 
L 603 3500 
z
M 603 4863 
L 1178 4863 
L 1178 4134 
L 603 4134 
L 603 4863 
z
" transform="scale(0.015625)"/>
      <path id="DejaVuSans-79" d="M 2059 -325 
Q 1816 -950 1584 -1140 
Q 1353 -1331 966 -1331 
L 506 -1331 
L 506 -850 
L 844 -850 
Q 1081 -850 1212 -737 
Q 1344 -625 1503 -206 
L 1606 56 
L 191 3500 
L 800 3500 
L 1894 763 
L 2988 3500 
L 3597 3500 
L 2059 -325 
z
" transform="scale(0.015625)"/>
     </defs>
     <use xlink:href="#DejaVuSans-62"/>
     <use xlink:href="#DejaVuSans-63" x="63.476562"/>
     <use xlink:href="#DejaVuSans-6c" x="118.457031"/>
     <use xlink:href="#DejaVuSans-32" x="146.240234"/>
     <use xlink:href="#DejaVuSans-66" x="209.863281"/>
     <use xlink:href="#DejaVuSans-61" x="245.068359"/>
     <use xlink:href="#DejaVuSans-73" x="306.347656"/>
     <use xlink:href="#DejaVuSans-74" x="358.447266"/>
     <use xlink:href="#DejaVuSans-71" x="397.65625"/>
     <use xlink:href="#DejaVuSans-3a" x="461.132812"/>
     <use xlink:href="#DejaVuSans-20" x="494.824219"/>
     <use xlink:href="#DejaVuSans-55" x="526.611328"/>
     <use xlink:href="#DejaVuSans-6e" x="599.804688"/>
     <use xlink:href="#DejaVuSans-64" x="663.183594"/>
     <use xlink:href="#DejaVuSans-65" x="726.660156"/>
     <use xlink:href="#DejaVuSans-74" x="788.183594"/>
     <use xlink:href="#DejaVuSans-65" x="827.392578"/>
     <use xlink:href="#DejaVuSans-72" x="888.916016"/>
     <use xlink:href="#DejaVuSans-6d" x="928.279297"/>
     <use xlink:href="#DejaVuSans-69" x="1025.691406"/>
     <use xlink:href="#DejaVuSans-6e" x="1053.474609"/>
     <use xlink:href="#DejaVuSans-65" x="1116.853516"/>
     <use xlink:href="#DejaVuSans-64" x="1178.376953"/>
     <use xlink:href="#DejaVuSans-20" x="1241.853516"/>
     <use xlink:href="#DejaVuSans-62" x="1273.640625"/>
     <use xlink:href="#DejaVuSans-61" x="1337.117188"/>
     <use xlink:href="#DejaVuSans-72" x="1398.396484"/>
     <use xlink:href="#DejaVuSans-63" x="1437.259766"/>
     <use xlink:href="#DejaVuSans-6f" x="1492.240234"/>
     <use xlink:href="#DejaVuSans-64" x="1553.421875"/>
     <use xlink:href="#DejaVuSans-65" x="1616.898438"/>
     <use xlink:href="#DejaVuSans-73" x="1678.421875"/>
     <use xlink:href="#DejaVuSans-20" x="1730.521484"/>
     <use xlink:href="#DejaVuSans-62" x="1762.308594"/>
     <use xlink:href="#DejaVuSans-79" x="1825.785156"/>
     <use xlink:href="#DejaVuSans-20" x="1884.964844"/>
     <use xlink:href="#DejaVuSans-6c" x="1916.751953"/>
     <use xlink:href="#DejaVuSans-61" x="1944.535156"/>
     <use xlink:href="#DejaVuSans-6e" x="2005.814453"/>
     <use xlink:href="#DejaVuSans-65" x="2069.193359"/>
    </g>
   </g>
   <g id="legend_1">
    <g id="patch_122">
     <path d="M 70.99 551.395707 
L 86.99 551.395707 
L 86.99 545.795707 
L 70.99 545.795707 
z
" style="fill: #7cb5ec"/>
    </g>
    <g id="text_29">
     <!-- 190219_A00642_0010_AHHCHVDMXX - L1 -->
     <g transform="translate(93.39 551.395707) scale(0.08 -0.08)">
      <defs>
       <path id="DejaVuSans-39" d="M 703 97 
L 703 672 
Q 941 559 1184 500 
Q 1428 441 1663 441 
Q 2288 441 2617 861 
Q 2947 1281 2994 2138 
Q 2813 1869 2534 1725 
Q 2256 1581 1919 1581 
Q 1219 1581 811 2004 
Q 403 2428 403 3163 
Q 403 3881 828 4315 
Q 1253 4750 1959 4750 
Q 2769 4750 3195 4129 
Q 3622 3509 3622 2328 
Q 3622 1225 3098 567 
Q 2575 -91 1691 -91 
Q 1453 -91 1209 -44 
Q 966 3 703 97 
z
M 1959 2075 
Q 2384 2075 2632 2365 
Q 2881 2656 2881 3163 
Q 2881 3666 2632 3958 
Q 2384 4250 1959 4250 
Q 1534 4250 1286 3958 
Q 1038 3666 1038 3163 
Q 1038 2656 1286 2365 
Q 1534 2075 1959 2075 
z
" transform="scale(0.015625)"/>
       <path id="DejaVuSans-5f" d="M 3263 -1063 
L 3263 -1509 
L -63 -1509 
L -63 -1063 
L 3263 -1063 
z
" transform="scale(0.015625)"/>
       <path id="DejaVuSans-48" d="M 628 4666 
L 1259 4666 
L 1259 2753 
L 3553 2753 
L 3553 4666 
L 4184 4666 
L 4184 0 
L 3553 0 
L 3553 2222 
L 1259 2222 
L 1259 0 
L 628 0 
L 628 4666 
z
" transform="scale(0.015625)"/>
       <path id="DejaVuSans-56" d="M 1831 0 
L 50 4666 
L 709 4666 
L 2188 738 
L 3669 4666 
L 4325 4666 
L 2547 0 
L 1831 0 
z
" transform="scale(0.015625)"/>
       <path id="DejaVuSans-44" d="M 1259 4147 
L 1259 519 
L 2022 519 
Q 2988 519 3436 956 
Q 3884 1394 3884 2338 
Q 3884 3275 3436 3711 
Q 2988 4147 2022 4147 
L 1259 4147 
z
M 628 4666 
L 1925 4666 
Q 3281 4666 3915 4102 
Q 4550 3538 4550 2338 
Q 4550 1131 3912 565 
Q 3275 0 1925 0 
L 628 0 
L 628 4666 
z
" transform="scale(0.015625)"/>
       <path id="DejaVuSans-4d" d="M 628 4666 
L 1569 4666 
L 2759 1491 
L 3956 4666 
L 4897 4666 
L 4897 0 
L 4281 0 
L 4281 4097 
L 3078 897 
L 2444 897 
L 1241 4097 
L 1241 0 
L 628 0 
L 628 4666 
z
" transform="scale(0.015625)"/>
       <path id="DejaVuSans-58" d="M 403 4666 
L 1081 4666 
L 2241 2931 
L 3406 4666 
L 4084 4666 
L 2584 2425 
L 4184 0 
L 3506 0 
L 2194 1984 
L 872 0 
L 191 0 
L 1856 2491 
L 403 4666 
z
" transform="scale(0.015625)"/>
       <path id="DejaVuSans-2d" d="M 313 2009 
L 1997 2009 
L 1997 1497 
L 313 1497 
L 313 2009 
z
" transform="scale(0.015625)"/>
       <path id="DejaVuSans-4c" d="M 628 4666 
L 1259 4666 
L 1259 531 
L 3531 531 
L 3531 0 
L 628 0 
L 628 4666 
z
" transform="scale(0.015625)"/>
      </defs>
      <use xlink:href="#DejaVuSans-31"/>
      <use xlink:href="#DejaVuSans-39" x="63.623047"/>
      <use xlink:href="#DejaVuSans-30" x="127.246094"/>
      <use xlink:href="#DejaVuSans-32" x="190.869141"/>
      <use xlink:href="#DejaVuSans-31" x="254.492188"/>
      <use xlink:href="#DejaVuSans-39" x="318.115234"/>
      <use xlink:href="#DejaVuSans-5f" x="381.738281"/>
      <use xlink:href="#DejaVuSans-41" x="431.738281"/>
      <use xlink:href="#DejaVuSans-30" x="500.146484"/>
      <use xlink:href="#DejaVuSans-30" x="563.769531"/>
      <use xlink:href="#DejaVuSans-36" x="627.392578"/>
      <use xlink:href="#DejaVuSans-34" x="691.015625"/>
      <use xlink:href="#DejaVuSans-32" x="754.638672"/>
      <use xlink:href="#DejaVuSans-5f" x="818.261719"/>
      <use xlink:href="#DejaVuSans-30" x="868.261719"/>
      <use xlink:href="#DejaVuSans-30" x="931.884766"/>
      <use xlink:href="#DejaVuSans-31" x="995.507812"/>
      <use xlink:href="#DejaVuSans-30" x="1059.130859"/>
      <use xlink:href="#DejaVuSans-5f" x="1122.753906"/>
      <use xlink:href="#DejaVuSans-41" x="1172.753906"/>
      <use xlink:href="#DejaVuSans-48" x="1241.162109"/>
      <use xlink:href="#DejaVuSans-48" x="1316.357422"/>
      <use xlink:href="#DejaVuSans-43" x="1391.552734"/>
      <use xlink:href="#DejaVuSans-48" x="1461.376953"/>
      <use xlink:href="#DejaVuSans-56" x="1536.572266"/>
      <use xlink:href="#DejaVuSans-44" x="1604.980469"/>
      <use xlink:href="#DejaVuSans-4d" x="1681.982422"/>
      <use xlink:href="#DejaVuSans-58" x="1768.261719"/>
      <use xlink:href="#DejaVuSans-58" x="1836.767578"/>
      <use xlink:href="#DejaVuSans-20" x="1905.273438"/>
      <use xlink:href="#DejaVuSans-2d" x="1937.060547"/>
      <use xlink:href="#DejaVuSans-20" x="1973.144531"/>
      <use xlink:href="#DejaVuSans-4c" x="2004.931641"/>
      <use xlink:href="#DejaVuSans-31" x="2060.644531"/>
     </g>
    </g>
    <g id="patch_123">
     <path d="M 70.99 563.360707 
L 86.99 563.360707 
L 86.99 557.760707 
L 70.99 557.760707 
z
" style="fill: #434348"/>
    </g>
    <g id="text_30">
     <!-- 190219_A00642_0010_AHHCHVDMXX - L2 -->
     <g transform="translate(93.39 563.360707) scale(0.08 -0.08)">
      <use xlink:href="#DejaVuSans-31"/>
      <use xlink:href="#DejaVuSans-39" x="63.623047"/>
      <use xlink:href="#DejaVuSans-30" x="127.246094"/>
      <use xlink:href="#DejaVuSans-32" x="190.869141"/>
      <use xlink:href="#DejaVuSans-31" x="254.492188"/>
      <use xlink:href="#DejaVuSans-39" x="318.115234"/>
      <use xlink:href="#DejaVuSans-5f" x="381.738281"/>
      <use xlink:href="#DejaVuSans-41" x="431.738281"/>
      <use xlink:href="#DejaVuSans-30" x="500.146484"/>
      <use xlink:href="#DejaVuSans-30" x="563.769531"/>
      <use xlink:href="#DejaVuSans-36" x="627.392578"/>
      <use xlink:href="#DejaVuSans-34" x="691.015625"/>
      <use xlink:href="#DejaVuSans-32" x="754.638672"/>
      <use xlink:href="#DejaVuSans-5f" x="818.261719"/>
      <use xlink:href="#DejaVuSans-30" x="868.261719"/>
      <use xlink:href="#DejaVuSans-30" x="931.884766"/>
      <use xlink:href="#DejaVuSans-31" x="995.507812"/>
      <use xlink:href="#DejaVuSans-30" x="1059.130859"/>
      <use xlink:href="#DejaVuSans-5f" x="1122.753906"/>
      <use xlink:href="#DejaVuSans-41" x="1172.753906"/>
      <use xlink:href="#DejaVuSans-48" x="1241.162109"/>
      <use xlink:href="#DejaVuSans-48" x="1316.357422"/>
      <use xlink:href="#DejaVuSans-43" x="1391.552734"/>
      <use xlink:href="#DejaVuSans-48" x="1461.376953"/>
      <use xlink:href="#DejaVuSans-56" x="1536.572266"/>
      <use xlink:href="#DejaVuSans-44" x="1604.980469"/>
      <use xlink:href="#DejaVuSans-4d" x="1681.982422"/>
      <use xlink:href="#DejaVuSans-58" x="1768.261719"/>
      <use xlink:href="#DejaVuSans-58" x="1836.767578"/>
      <use xlink:href="#DejaVuSans-20" x="1905.273438"/>
      <use xlink:href="#DejaVuSans-2d" x="1937.060547"/>
      <use xlink:href="#DejaVuSans-20" x="1973.144531"/>
      <use xlink:href="#DejaVuSans-4c" x="2004.931641"/>
      <use xlink:href="#DejaVuSans-32" x="2060.644531"/>
     </g>
    </g>
    <g id="patch_124">
     <path d="M 217.778437 551.395707 
L 233.778437 551.395707 
L 233.778437 545.795707 
L 217.778437 545.795707 
z
" style="fill: #90ed7d"/>
    </g>
    <g id="text_31">
     <!-- 190830_A00642_0037_BHL3LFDMXX - L1 -->
     <g transform="translate(240.178437 551.395707) scale(0.08 -0.08)">
      <defs>
       <path id="DejaVuSans-33" d="M 2597 2516 
Q 3050 2419 3304 2112 
Q 3559 1806 3559 1356 
Q 3559 666 3084 287 
Q 2609 -91 1734 -91 
Q 1441 -91 1130 -33 
Q 819 25 488 141 
L 488 750 
Q 750 597 1062 519 
Q 1375 441 1716 441 
Q 2309 441 2620 675 
Q 2931 909 2931 1356 
Q 2931 1769 2642 2001 
Q 2353 2234 1838 2234 
L 1294 2234 
L 1294 2753 
L 1863 2753 
Q 2328 2753 2575 2939 
Q 2822 3125 2822 3475 
Q 2822 3834 2567 4026 
Q 2313 4219 1838 4219 
Q 1578 4219 1281 4162 
Q 984 4106 628 3988 
L 628 4550 
Q 988 4650 1302 4700 
Q 1616 4750 1894 4750 
Q 2613 4750 3031 4423 
Q 3450 4097 3450 3541 
Q 3450 3153 3228 2886 
Q 3006 2619 2597 2516 
z
" transform="scale(0.015625)"/>
       <path id="DejaVuSans-37" d="M 525 4666 
L 3525 4666 
L 3525 4397 
L 1831 0 
L 1172 0 
L 2766 4134 
L 525 4134 
L 525 4666 
z
" transform="scale(0.015625)"/>
       <path id="DejaVuSans-42" d="M 1259 2228 
L 1259 519 
L 2272 519 
Q 2781 519 3026 730 
Q 3272 941 3272 1375 
Q 3272 1813 3026 2020 
Q 2781 2228 2272 2228 
L 1259 2228 
z
M 1259 4147 
L 1259 2741 
L 2194 2741 
Q 2656 2741 2882 2914 
Q 3109 3088 3109 3444 
Q 3109 3797 2882 3972 
Q 2656 4147 2194 4147 
L 1259 4147 
z
M 628 4666 
L 2241 4666 
Q 2963 4666 3353 4366 
Q 3744 4066 3744 3513 
Q 3744 3084 3544 2831 
Q 3344 2578 2956 2516 
Q 3422 2416 3680 2098 
Q 3938 1781 3938 1306 
Q 3938 681 3513 340 
Q 3088 0 2303 0 
L 628 0 
L 628 4666 
z
" transform="scale(0.015625)"/>
       <path id="DejaVuSans-46" d="M 628 4666 
L 3309 4666 
L 3309 4134 
L 1259 4134 
L 1259 2759 
L 3109 2759 
L 3109 2228 
L 1259 2228 
L 1259 0 
L 628 0 
L 628 4666 
z
" transform="scale(0.015625)"/>
      </defs>
      <use xlink:href="#DejaVuSans-31"/>
      <use xlink:href="#DejaVuSans-39" x="63.623047"/>
      <use xlink:href="#DejaVuSans-30" x="127.246094"/>
      <use xlink:href="#DejaVuSans-38" x="190.869141"/>
      <use xlink:href="#DejaVuSans-33" x="254.492188"/>
      <use xlink:href="#DejaVuSans-30" x="318.115234"/>
      <use xlink:href="#DejaVuSans-5f" x="381.738281"/>
      <use xlink:href="#DejaVuSans-41" x="431.738281"/>
      <use xlink:href="#DejaVuSans-30" x="500.146484"/>
      <use xlink:href="#DejaVuSans-30" x="563.769531"/>
      <use xlink:href="#DejaVuSans-36" x="627.392578"/>
      <use xlink:href="#DejaVuSans-34" x="691.015625"/>
      <use xlink:href="#DejaVuSans-32" x="754.638672"/>
      <use xlink:href="#DejaVuSans-5f" x="818.261719"/>
      <use xlink:href="#DejaVuSans-30" x="868.261719"/>
      <use xlink:href="#DejaVuSans-30" x="931.884766"/>
      <use xlink:href="#DejaVuSans-33" x="995.507812"/>
      <use xlink:href="#DejaVuSans-37" x="1059.130859"/>
      <use xlink:href="#DejaVuSans-5f" x="1122.753906"/>
      <use xlink:href="#DejaVuSans-42" x="1172.753906"/>
      <use xlink:href="#DejaVuSans-48" x="1241.357422"/>
      <use xlink:href="#DejaVuSans-4c" x="1316.552734"/>
      <use xlink:href="#DejaVuSans-33" x="1372.265625"/>
      <use xlink:href="#DejaVuSans-4c" x="1435.888672"/>
      <use xlink:href="#DejaVuSans-46" x="1491.601562"/>
      <use xlink:href="#DejaVuSans-44" x="1549.121094"/>
      <use xlink:href="#DejaVuSans-4d" x="1626.123047"/>
      <use xlink:href="#DejaVuSans-58" x="1712.402344"/>
      <use xlink:href="#DejaVuSans-58" x="1780.908203"/>
      <use xlink:href="#DejaVuSans-20" x="1849.414062"/>
      <use xlink:href="#DejaVuSans-2d" x="1881.201172"/>
      <use xlink:href="#DejaVuSans-20" x="1917.285156"/>
      <use xlink:href="#DejaVuSans-4c" x="1949.072266"/>
      <use xlink:href="#DejaVuSans-31" x="2004.785156"/>
     </g>
    </g>
    <g id="patch_125">
     <path d="M 360.098125 551.395707 
L 376.098125 551.395707 
L 376.098125 545.795707 
L 360.098125 545.795707 
z
" style="fill: #f7a35c"/>
    </g>
    <g id="text_32">
     <!-- 190830_A00642_0037_BHL3LFDMXX - L2 -->
     <g transform="translate(382.498125 551.395707) scale(0.08 -0.08)">
      <use xlink:href="#DejaVuSans-31"/>
      <use xlink:href="#DejaVuSans-39" x="63.623047"/>
      <use xlink:href="#DejaVuSans-30" x="127.246094"/>
      <use xlink:href="#DejaVuSans-38" x="190.869141"/>
      <use xlink:href="#DejaVuSans-33" x="254.492188"/>
      <use xlink:href="#DejaVuSans-30" x="318.115234"/>
      <use xlink:href="#DejaVuSans-5f" x="381.738281"/>
      <use xlink:href="#DejaVuSans-41" x="431.738281"/>
      <use xlink:href="#DejaVuSans-30" x="500.146484"/>
      <use xlink:href="#DejaVuSans-30" x="563.769531"/>
      <use xlink:href="#DejaVuSans-36" x="627.392578"/>
      <use xlink:href="#DejaVuSans-34" x="691.015625"/>
      <use xlink:href="#DejaVuSans-32" x="754.638672"/>
      <use xlink:href="#DejaVuSans-5f" x="818.261719"/>
      <use xlink:href="#DejaVuSans-30" x="868.261719"/>
      <use xlink:href="#DejaVuSans-30" x="931.884766"/>
      <use xlink:href="#DejaVuSans-33" x="995.507812"/>
      <use xlink:href="#DejaVuSans-37" x="1059.130859"/>
      <use xlink:href="#DejaVuSans-5f" x="1122.753906"/>
      <use xlink:href="#DejaVuSans-42" x="1172.753906"/>
      <use xlink:href="#DejaVuSans-48" x="1241.357422"/>
      <use xlink:href="#DejaVuSans-4c" x="1316.552734"/>
      <use xlink:href="#DejaVuSans-33" x="1372.265625"/>
      <use xlink:href="#DejaVuSans-4c" x="1435.888672"/>
      <use xlink:href="#DejaVuSans-46" x="1491.601562"/>
      <use xlink:href="#DejaVuSans-44" x="1549.121094"/>
      <use xlink:href="#DejaVuSans-4d" x="1626.123047"/>
      <use xlink:href="#DejaVuSans-58" x="1712.402344"/>
      <use xlink:href="#DejaVuSans-58" x="1780.908203"/>
      <use xlink:href="#DejaVuSans-20" x="1849.414062"/>
      <use xlink:href="#DejaVuSans-2d" x="1881.201172"/>
      <use xlink:href="#DejaVuSans-20" x="1917.285156"/>
      <use xlink:href="#DejaVuSans-4c" x="1949.072266"/>
      <use xlink:href="#DejaVuSans-32" x="2004.785156"/>
     </g>
    </g>
    <g id="patch_126">
     <path d="M 502.417813 551.395707 
L 518.417813 551.395707 
L 518.417813 545.795707 
L 502.417813 545.795707 
z
" style="fill: #8085e9"/>
    </g>
    <g id="text_33">
     <!-- 190830_A00642_0038_AHCWFLDRXX - L1 -->
     <g transform="translate(524.817813 551.395707) scale(0.08 -0.08)">
      <defs>
       <path id="DejaVuSans-57" d="M 213 4666 
L 850 4666 
L 1831 722 
L 2809 4666 
L 3519 4666 
L 4500 722 
L 5478 4666 
L 6119 4666 
L 4947 0 
L 4153 0 
L 3169 4050 
L 2175 0 
L 1381 0 
L 213 4666 
z
" transform="scale(0.015625)"/>
       <path id="DejaVuSans-52" d="M 2841 2188 
Q 3044 2119 3236 1894 
Q 3428 1669 3622 1275 
L 4263 0 
L 3584 0 
L 2988 1197 
Q 2756 1666 2539 1819 
Q 2322 1972 1947 1972 
L 1259 1972 
L 1259 0 
L 628 0 
L 628 4666 
L 2053 4666 
Q 2853 4666 3247 4331 
Q 3641 3997 3641 3322 
Q 3641 2881 3436 2590 
Q 3231 2300 2841 2188 
z
M 1259 4147 
L 1259 2491 
L 2053 2491 
Q 2509 2491 2742 2702 
Q 2975 2913 2975 3322 
Q 2975 3731 2742 3939 
Q 2509 4147 2053 4147 
L 1259 4147 
z
" transform="scale(0.015625)"/>
      </defs>
      <use xlink:href="#DejaVuSans-31"/>
      <use xlink:href="#DejaVuSans-39" x="63.623047"/>
      <use xlink:href="#DejaVuSans-30" x="127.246094"/>
      <use xlink:href="#DejaVuSans-38" x="190.869141"/>
      <use xlink:href="#DejaVuSans-33" x="254.492188"/>
      <use xlink:href="#DejaVuSans-30" x="318.115234"/>
      <use xlink:href="#DejaVuSans-5f" x="381.738281"/>
      <use xlink:href="#DejaVuSans-41" x="431.738281"/>
      <use xlink:href="#DejaVuSans-30" x="500.146484"/>
      <use xlink:href="#DejaVuSans-30" x="563.769531"/>
      <use xlink:href="#DejaVuSans-36" x="627.392578"/>
      <use xlink:href="#DejaVuSans-34" x="691.015625"/>
      <use xlink:href="#DejaVuSans-32" x="754.638672"/>
      <use xlink:href="#DejaVuSans-5f" x="818.261719"/>
      <use xlink:href="#DejaVuSans-30" x="868.261719"/>
      <use xlink:href="#DejaVuSans-30" x="931.884766"/>
      <use xlink:href="#DejaVuSans-33" x="995.507812"/>
      <use xlink:href="#DejaVuSans-38" x="1059.130859"/>
      <use xlink:href="#DejaVuSans-5f" x="1122.753906"/>
      <use xlink:href="#DejaVuSans-41" x="1172.753906"/>
      <use xlink:href="#DejaVuSans-48" x="1241.162109"/>
      <use xlink:href="#DejaVuSans-43" x="1316.357422"/>
      <use xlink:href="#DejaVuSans-57" x="1386.181641"/>
      <use xlink:href="#DejaVuSans-46" x="1485.058594"/>
      <use xlink:href="#DejaVuSans-4c" x="1542.578125"/>
      <use xlink:href="#DejaVuSans-44" x="1598.291016"/>
      <use xlink:href="#DejaVuSans-52" x="1675.292969"/>
      <use xlink:href="#DejaVuSans-58" x="1744.775391"/>
      <use xlink:href="#DejaVuSans-58" x="1813.28125"/>
      <use xlink:href="#DejaVuSans-20" x="1881.787109"/>
      <use xlink:href="#DejaVuSans-2d" x="1913.574219"/>
      <use xlink:href="#DejaVuSans-20" x="1949.658203"/>
      <use xlink:href="#DejaVuSans-4c" x="1981.445312"/>
      <use xlink:href="#DejaVuSans-31" x="2037.158203"/>
     </g>
    </g>
    <g id="patch_127">
     <path d="M 647.32625 551.395707 
L 663.32625 551.395707 
L 663.32625 545.795707 
L 647.32625 545.795707 
z
" style="fill: #f15c80"/>
    </g>
    <g id="text_34">
     <!-- 190830_A00642_0038_AHCWFLDRXX - L2 -->
     <g transform="translate(669.72625 551.395707) scale(0.08 -0.08)">
      <use xlink:href="#DejaVuSans-31"/>
      <use xlink:href="#DejaVuSans-39" x="63.623047"/>
      <use xlink:href="#DejaVuSans-30" x="127.246094"/>
      <use xlink:href="#DejaVuSans-38" x="190.869141"/>
      <use xlink:href="#DejaVuSans-33" x="254.492188"/>
      <use xlink:href="#DejaVuSans-30" x="318.115234"/>
      <use xlink:href="#DejaVuSans-5f" x="381.738281"/>
      <use xlink:href="#DejaVuSans-41" x="431.738281"/>
      <use xlink:href="#DejaVuSans-30" x="500.146484"/>
      <use xlink:href="#DejaVuSans-30" x="563.769531"/>
      <use xlink:href="#DejaVuSans-36" x="627.392578"/>
      <use xlink:href="#DejaVuSans-34" x="691.015625"/>
      <use xlink:href="#DejaVuSans-32" x="754.638672"/>
      <use xlink:href="#DejaVuSans-5f" x="818.261719"/>
      <use xlink:href="#DejaVuSans-30" x="868.261719"/>
      <use xlink:href="#DejaVuSans-30" x="931.884766"/>
      <use xlink:href="#DejaVuSans-33" x="995.507812"/>
      <use xlink:href="#DejaVuSans-38" x="1059.130859"/>
      <use xlink:href="#DejaVuSans-5f" x="1122.753906"/>
      <use xlink:href="#DejaVuSans-41" x="1172.753906"/>
      <use xlink:href="#DejaVuSans-48" x="1241.162109"/>
      <use xlink:href="#DejaVuSans-43" x="1316.357422"/>
      <use xlink:href="#DejaVuSans-57" x="1386.181641"/>
      <use xlink:href="#DejaVuSans-46" x="1485.058594"/>
      <use xlink:href="#DejaVuSans-4c" x="1542.578125"/>
      <use xlink:href="#DejaVuSans-44" x="1598.291016"/>
      <use xlink:href="#DejaVuSans-52" x="1675.292969"/>
      <use xlink:href="#DejaVuSans-58" x="1744.775391"/>
      <use xlink:href="#DejaVuSans-58" x="1813.28125"/>
      <use xlink:href="#DejaVuSans-20" x="1881.787109"/>
      <use xlink:href="#DejaVuSans-2d" x="1913.574219"/>
      <use xlink:href="#DejaVuSans-20" x="1949.658203"/>
      <use xlink:href="#DejaVuSans-4c" x="1981.445312"/>
      <use xlink:href="#DejaVuSans-32" x="2037.158203"/>
     </g>
    </g>
   </g>
  </g>
 </g>
 <defs>
  <clipPath id="p3db791a411">
   <rect x="63.79" y="7.2" width="781.2" height="482.086957"/>
  </clipPath>
 </defs>
</svg>
